{
    "asset" : {
        "generator" : "Khronos glTF Blender I/O v0.9.33",
        "version" : "2.0"
    },
    "scene" : 0,
    "scenes" : [
        {
            "name" : "Scene",
            "nodes" : [
                0,
                1,
                2,
                3,
                4,
                5,
                6,
                7,
                8,
                9,
                10
            ]
        }
    ],
    "nodes" : [
        {
            "name" : "Light",
            "rotation" : [
                0.16907575726509094,
                0.7558803558349609,
                -0.27217137813568115,
                0.570947527885437
            ],
            "translation" : [
                4.076245307922363,
                5.903861999511719,
                -1.0054539442062378
            ]
        },
        {
            "name" : "Camera",
            "rotation" : [
                0.483536034822464,
                0.33687159419059753,
                -0.20870360732078552,
                0.7804827094078064
            ],
            "translation" : [
                7.358891487121582,
                4.958309173583984,
                6.925790786743164
            ]
        },
        {
            "mesh" : 0,
            "name" : "face",
            "scale" : [
                1,
                0.3450130522251129,
                1
            ]
        },
        {
            "mesh" : 1,
            "name" : "bottom",
            "scale" : [
                0.8999999761581421,
                0.8999999761581421,
                0.8999999761581421
            ],
            "translation" : [
                0,
                -3.1299996376037598,
                0
            ]
        },
        {
            "mesh" : 2,
            "name" : "body",
            "scale" : [
                1,
                1.119999885559082,
                1
            ],
            "translation" : [
                0,
                -1.6000001430511475,
                0
            ]
        },
        {
            "mesh" : 3,
            "name" : "left hand",
            "translation" : [
                0,
                -3,
                2.6000001430511475
            ]
        },
        {
            "mesh" : 4,
            "name" : "right hand",
            "translation" : [
                0,
                -3,
                -2.5999999046325684
            ]
        },
        {
            "mesh" : 5,
            "name" : "Sphere",
            "scale" : [
                0.8999999761581421,
                0.8999999761581421,
                0.8999999761581421
            ],
            "translation" : [
                1.809980034828186,
                1.5289114713668823,
                0.8399999737739563
            ]
        },
        {
            "mesh" : 6,
            "name" : "Sphere.001",
            "scale" : [
                0.8999999761581421,
                0.8999999761581421,
                0.8999999761581421
            ],
            "translation" : [
                1.809980034828186,
                1.5289114713668823,
                -0.8399999737739563
            ]
        },
        {
            "mesh" : 7,
            "name" : "Torus",
            "rotation" : [
                0,
                0,
                -0.7071067690849304,
                0.7071068286895752
            ],
            "scale" : [
                -0.9689932465553284,
                -0.9689932465553284,
                -1.0870029926300049
            ],
            "translation" : [
                2.266975164413452,
                1.625810146331787,
                1
            ]
        },
        {
            "mesh" : 8,
            "name" : "Torus.001",
            "rotation" : [
                0,
                0,
                -0.7071067690849304,
                0.7071068286895752
            ],
            "scale" : [
                -0.9689932465553284,
                -0.9689932465553284,
                -1.0870029926300049
            ],
            "translation" : [
                2.266975164413452,
                1.625810146331787,
                -1
            ]
        }
    ],
    "materials" : [
        {
            "doubleSided" : true,
            "name" : "Material.001",
            "pbrMetallicRoughness" : {
                "baseColorFactor" : [
                    0.8000000715255737,
                    0.4541442096233368,
                    0.22471000254154205,
                    1
                ],
                "metallicFactor" : 0,
                "roughnessFactor" : 0.5
            }
        },
        {
            "doubleSided" : true,
            "name" : "Material.002",
            "pbrMetallicRoughness" : {
                "baseColorFactor" : [
                    0.34494248032569885,
                    0.7771389484405518,
                    0.8000000715255737,
                    1
                ],
                "metallicFactor" : 0,
                "roughnessFactor" : 0.5
            }
        },
        {
            "doubleSided" : true,
            "name" : "Material.003",
            "pbrMetallicRoughness" : {
                "baseColorFactor" : [
                    0.018902087584137917,
                    0.10983733832836151,
                    0.3146662414073944,
                    1
                ],
                "metallicFactor" : 0,
                "roughnessFactor" : 0.5
            }
        },
        {
            "doubleSided" : true,
            "name" : "Material.006",
            "pbrMetallicRoughness" : {
                "baseColorFactor" : [
                    0.010547458194196224,
                    0.010547458194196224,
                    0.010547458194196224,
                    1
                ],
                "metallicFactor" : 0,
                "roughnessFactor" : 0.5
            }
        },
        {
            "doubleSided" : true,
            "name" : "Material.004",
            "pbrMetallicRoughness" : {
                "baseColorFactor" : [
                    0.8000000715255737,
                    0.04818684235215187,
                    0.012622447684407234,
                    1
                ],
                "metallicFactor" : 0,
                "roughnessFactor" : 0.5
            }
        }
    ],
    "meshes" : [
        {
            "name" : "Sphere.001",
            "primitives" : [
                {
                    "attributes" : {
                        "POSITION" : 0,
                        "NORMAL" : 1,
                        "TEXCOORD_0" : 2
                    },
                    "indices" : 3,
                    "material" : 0
                }
            ]
        },
        {
            "name" : "Sphere.004",
            "primitives" : [
                {
                    "attributes" : {
                        "POSITION" : 4,
                        "NORMAL" : 5,
                        "TEXCOORD_0" : 6
                    },
                    "indices" : 7,
                    "material" : 1
                }
            ]
        },
        {
            "name" : "Cube.001",
            "primitives" : [
                {
                    "attributes" : {
                        "POSITION" : 8,
                        "NORMAL" : 9,
                        "TEXCOORD_0" : 10
                    },
                    "indices" : 11,
                    "material" : 2
                }
            ]
        },
        {
            "name" : "Sphere.005",
            "primitives" : [
                {
                    "attributes" : {
                        "POSITION" : 12,
                        "NORMAL" : 13,
                        "TEXCOORD_0" : 14
                    },
                    "indices" : 15,
                    "material" : 0
                }
            ]
        },
        {
            "name" : "Sphere.006",
            "primitives" : [
                {
                    "attributes" : {
                        "POSITION" : 16,
                        "NORMAL" : 17,
                        "TEXCOORD_0" : 18
                    },
                    "indices" : 15,
                    "material" : 0
                }
            ]
        },
        {
            "name" : "Sphere",
            "primitives" : [
                {
                    "attributes" : {
                        "POSITION" : 19,
                        "NORMAL" : 20,
                        "TEXCOORD_0" : 21
                    },
                    "indices" : 22,
                    "material" : 3
                }
            ]
        },
        {
            "name" : "Sphere.002",
            "primitives" : [
                {
                    "attributes" : {
                        "POSITION" : 23,
                        "NORMAL" : 24,
                        "TEXCOORD_0" : 25
                    },
                    "indices" : 22,
                    "material" : 3
                }
            ]
        },
        {
            "name" : "Torus",
            "primitives" : [
                {
                    "attributes" : {
                        "POSITION" : 26,
                        "NORMAL" : 27,
                        "TEXCOORD_0" : 28
                    },
                    "indices" : 29,
                    "material" : 4
                }
            ]
        },
        {
            "name" : "Torus.001",
            "primitives" : [
                {
                    "attributes" : {
                        "POSITION" : 30,
                        "NORMAL" : 31,
                        "TEXCOORD_0" : 32
                    },
                    "indices" : 29,
                    "material" : 4
                }
            ]
        }
    ],
    "accessors" : [
        {
            "bufferView" : 0,
            "componentType" : 5126,
            "count" : 4122,
            "max" : [
                2.299999952316284,
                12.000000953674316,
                2.0000007152557373
            ],
            "min" : [
                -2,
                -2,
                -2
            ],
            "type" : "VEC3"
        },
        {
            "bufferView" : 1,
            "componentType" : 5126,
            "count" : 4122,
            "type" : "VEC3"
        },
        {
            "bufferView" : 2,
            "componentType" : 5126,
            "count" : 4122,
            "type" : "VEC2"
        },
        {
            "bufferView" : 3,
            "componentType" : 5123,
            "count" : 6084,
            "type" : "SCALAR"
        },
        {
            "bufferView" : 4,
            "componentType" : 5126,
            "count" : 1984,
            "max" : [
                1.7000004053115845,
                1.7000000476837158,
                1.700000524520874
            ],
            "min" : [
                -1.6999996900558472,
                -1.7000000476837158,
                -1.7000000476837158
            ],
            "type" : "VEC3"
        },
        {
            "bufferView" : 5,
            "componentType" : 5126,
            "count" : 1984,
            "type" : "VEC3"
        },
        {
            "bufferView" : 6,
            "componentType" : 5126,
            "count" : 1984,
            "type" : "VEC2"
        },
        {
            "bufferView" : 7,
            "componentType" : 5123,
            "count" : 2880,
            "type" : "SCALAR"
        },
        {
            "bufferView" : 8,
            "componentType" : 5126,
            "count" : 20480,
            "max" : [
                1.7118594646453857,
                0.4315507709980011,
                1.7118594646453857
            ],
            "min" : [
                -1.7118586301803589,
                -1.9952805042266846,
                -1.7118587493896484
            ],
            "type" : "VEC3"
        },
        {
            "bufferView" : 9,
            "componentType" : 5126,
            "count" : 20480,
            "type" : "VEC3"
        },
        {
            "bufferView" : 10,
            "componentType" : 5126,
            "count" : 20480,
            "type" : "VEC2"
        },
        {
            "bufferView" : 11,
            "componentType" : 5123,
            "count" : 30720,
            "type" : "SCALAR"
        },
        {
            "bufferView" : 12,
            "componentType" : 5126,
            "count" : 552,
            "max" : [
                0.4999997913837433,
                0.5,
                0.4999995827674866
            ],
            "min" : [
                -0.4999997317790985,
                -0.5,
                -0.5
            ],
            "type" : "VEC3"
        },
        {
            "bufferView" : 13,
            "componentType" : 5126,
            "count" : 552,
            "type" : "VEC3"
        },
        {
            "bufferView" : 14,
            "componentType" : 5126,
            "count" : 552,
            "type" : "VEC2"
        },
        {
            "bufferView" : 15,
            "componentType" : 5123,
            "count" : 792,
            "type" : "SCALAR"
        },
        {
            "bufferView" : 16,
            "componentType" : 5126,
            "count" : 552,
            "max" : [
                0.4999997913837433,
                0.5,
                0.4999995827674866
            ],
            "min" : [
                -0.4999997317790985,
                -0.5,
                -0.5
            ],
            "type" : "VEC3"
        },
        {
            "bufferView" : 17,
            "componentType" : 5126,
            "count" : 552,
            "type" : "VEC3"
        },
        {
            "bufferView" : 18,
            "componentType" : 5126,
            "count" : 552,
            "type" : "VEC2"
        },
        {
            "bufferView" : 19,
            "componentType" : 5126,
            "count" : 552,
            "max" : [
                0.19999989867210388,
                0.20000000298023224,
                0.19999980926513672
            ],
            "min" : [
                -0.1999998837709427,
                -0.20000000298023224,
                -0.20000000298023224
            ],
            "type" : "VEC3"
        },
        {
            "bufferView" : 20,
            "componentType" : 5126,
            "count" : 552,
            "type" : "VEC3"
        },
        {
            "bufferView" : 21,
            "componentType" : 5126,
            "count" : 552,
            "type" : "VEC2"
        },
        {
            "bufferView" : 22,
            "componentType" : 5123,
            "count" : 792,
            "type" : "SCALAR"
        },
        {
            "bufferView" : 23,
            "componentType" : 5126,
            "count" : 552,
            "max" : [
                0.19999989867210388,
                0.20000000298023224,
                0.19999980926513672
            ],
            "min" : [
                -0.1999998837709427,
                -0.20000000298023224,
                -0.20000000298023224
            ],
            "type" : "VEC3"
        },
        {
            "bufferView" : 24,
            "componentType" : 5126,
            "count" : 552,
            "type" : "VEC3"
        },
        {
            "bufferView" : 25,
            "componentType" : 5126,
            "count" : 552,
            "type" : "VEC2"
        },
        {
            "bufferView" : 26,
            "componentType" : 5126,
            "count" : 1536,
            "max" : [
                1.03000009059906,
                0.1499999314546585,
                1.03000009059906
            ],
            "min" : [
                -1.03000009059906,
                -0.1499999314546585,
                -1.03000009059906
            ],
            "type" : "VEC3"
        },
        {
            "bufferView" : 27,
            "componentType" : 5126,
            "count" : 1536,
            "type" : "VEC3"
        },
        {
            "bufferView" : 28,
            "componentType" : 5126,
            "count" : 1536,
            "type" : "VEC2"
        },
        {
            "bufferView" : 29,
            "componentType" : 5123,
            "count" : 2304,
            "type" : "SCALAR"
        },
        {
            "bufferView" : 30,
            "componentType" : 5126,
            "count" : 1536,
            "max" : [
                1.03000009059906,
                0.1499999314546585,
                1.03000009059906
            ],
            "min" : [
                -1.03000009059906,
                -0.1499999314546585,
                -1.03000009059906
            ],
            "type" : "VEC3"
        },
        {
            "bufferView" : 31,
            "componentType" : 5126,
            "count" : 1536,
            "type" : "VEC3"
        },
        {
            "bufferView" : 32,
            "componentType" : 5126,
            "count" : 1536,
            "type" : "VEC2"
        }
    ],
    "bufferViews" : [
        {
            "buffer" : 0,
            "byteLength" : 49464,
            "byteOffset" : 0
        },
        {
            "buffer" : 0,
            "byteLength" : 49464,
            "byteOffset" : 49464
        },
        {
            "buffer" : 0,
            "byteLength" : 32976,
            "byteOffset" : 98928
        },
        {
            "buffer" : 0,
            "byteLength" : 12168,
            "byteOffset" : 131904
        },
        {
            "buffer" : 0,
            "byteLength" : 23808,
            "byteOffset" : 144072
        },
        {
            "buffer" : 0,
            "byteLength" : 23808,
            "byteOffset" : 167880
        },
        {
            "buffer" : 0,
            "byteLength" : 15872,
            "byteOffset" : 191688
        },
        {
            "buffer" : 0,
            "byteLength" : 5760,
            "byteOffset" : 207560
        },
        {
            "buffer" : 0,
            "byteLength" : 245760,
            "byteOffset" : 213320
        },
        {
            "buffer" : 0,
            "byteLength" : 245760,
            "byteOffset" : 459080
        },
        {
            "buffer" : 0,
            "byteLength" : 163840,
            "byteOffset" : 704840
        },
        {
            "buffer" : 0,
            "byteLength" : 61440,
            "byteOffset" : 868680
        },
        {
            "buffer" : 0,
            "byteLength" : 6624,
            "byteOffset" : 930120
        },
        {
            "buffer" : 0,
            "byteLength" : 6624,
            "byteOffset" : 936744
        },
        {
            "buffer" : 0,
            "byteLength" : 4416,
            "byteOffset" : 943368
        },
        {
            "buffer" : 0,
            "byteLength" : 1584,
            "byteOffset" : 947784
        },
        {
            "buffer" : 0,
            "byteLength" : 6624,
            "byteOffset" : 949368
        },
        {
            "buffer" : 0,
            "byteLength" : 6624,
            "byteOffset" : 955992
        },
        {
            "buffer" : 0,
            "byteLength" : 4416,
            "byteOffset" : 962616
        },
        {
            "buffer" : 0,
            "byteLength" : 6624,
            "byteOffset" : 967032
        },
        {
            "buffer" : 0,
            "byteLength" : 6624,
            "byteOffset" : 973656
        },
        {
            "buffer" : 0,
            "byteLength" : 4416,
            "byteOffset" : 980280
        },
        {
            "buffer" : 0,
            "byteLength" : 1584,
            "byteOffset" : 984696
        },
        {
            "buffer" : 0,
            "byteLength" : 6624,
            "byteOffset" : 986280
        },
        {
            "buffer" : 0,
            "byteLength" : 6624,
            "byteOffset" : 992904
        },
        {
            "buffer" : 0,
            "byteLength" : 4416,
            "byteOffset" : 999528
        },
        {
            "buffer" : 0,
            "byteLength" : 18432,
            "byteOffset" : 1003944
        },
        {
            "buffer" : 0,
            "byteLength" : 18432,
            "byteOffset" : 1022376
        },
        {
            "buffer" : 0,
            "byteLength" : 12288,
            "byteOffset" : 1040808
        },
        {
            "buffer" : 0,
            "byteLength" : 4608,
            "byteOffset" : 1053096
        },
        {
            "buffer" : 0,
            "byteLength" : 18432,
            "byteOffset" : 1057704
        },
        {
            "buffer" : 0,
            "byteLength" : 18432,
            "byteOffset" : 1076136
        },
        {
            "buffer" : 0,
            "byteLength" : 12288,
            "byteOffset" : 1094568
        }
    ],
    "buffers" : [
        {
            "byteLength" : 1106856,
            "uri" : "data:application/octet-stream;base64,"
        }
    ]
}
